<svg xmlns="http://www.w3.org/2000/svg" version="1.1" xmlns:xlink="http://www.w3.org/1999/xlink" width="1000" height="1000"><metadata><rdf:RDF xmlns:rdf="http://www.w3.org/1999/02/22-rdf-syntax-ns#" xmlns:dc="http://purl.org/dc/elements/1.1/"><rdf:Description><dc:creator>RealFaviconGenerator</dc:creator><dc:source>https://realfavicongenerator.net</dc:source></rdf:Description></rdf:RDF></metadata><g clip-path="url(#SvgjsClipPath1122)"><rect width="1000" height="1000" fill="#ffffff"></rect><g transform="matrix(0.5555555555555556,0,0,0.5555555555555556,0,0)"><svg xmlns="http://www.w3.org/2000/svg" version="1.1" xmlns:xlink="http://www.w3.org/1999/xlink" viewBox="0,0,1800,1800" style="enable-background:new 0 0 1800 1800;" width="1800" height="1800"><defs><clipPath id="SvgjsClipPath1122"><rect width="1000" height="1000" x="0" y="0" rx="500" ry="500"></rect></clipPath></defs><g id="layer0">
<path d="M872,1690.88C711.787,1685.75 554.475,1630.77 427.278,1535.43L419.056,1529.27L424.278,1528.64C431.076,1527.83 1339.07,1528.05 1361.94,1528.87L1379.37,1529.5L1365.44,1539.63C1276.95,1603.96 1181.15,1647.56 1074.5,1672.04C1053.81,1676.79 1010.99,1684.11 990.5,1686.4C955.034,1690.36 909.519,1692.09 872,1690.88ZM480.55,1473.29L352.6,1472.99L336.206,1456.28C293.283,1412.51 256.279,1365.4 225.298,1315.09L216.933,1301.5L294.216,1300.89C488.266,1299.37 1581,1300.31 1581,1302C1581,1302.97 1559.41,1337.08 1552.48,1347.06C1524.6,1387.24 1496.54,1421.21 1463.34,1455L1445.17,1473.5L1026.83,1473.54C796.75,1473.56 550.922,1473.45 480.55,1473.29ZM368,1242.92C353.174,1241.26 331.936,1236.37 318.5,1231.52C293.106,1222.37 274.808,1210.82 255.889,1192.03C236.634,1172.9 225.849,1154.83 220.418,1132.61C217.442,1120.43 217.074,1077.79 217.705,818.25L218.332,560L314.549,560L410.767,560L411.376,562.25C412.505,566.426 413.977,687.519 415.006,861C415.569,955.875 416.31,1035.97 416.652,1039C417.308,1044.8 418.386,1047 420.563,1047C423.704,1047 443.78,1032.2 482.587,1001.27L510.674,978.885L511.336,922.693C511.7,891.787 512.025,804.625 512.058,729C512.117,593.294 512.583,565.017 514.798,562.802C517.78,559.82 529.048,558.872 573.728,557.842C624.512,556.671 696.93,557.822 700.738,559.86C701.934,560.5 703.394,562.706 703.983,564.762C706.351,573.026 706.936,612.49 706.967,766.088C706.985,854.411 707.28,938.336 707.622,952.588L708.244,978.5L713.95,984C725.431,995.066 781.507,1037.86 791.255,1043C796.696,1045.86 798.833,1045.25 800.262,1040.42C801.413,1036.53 802.852,897.319 803.001,775.5C803.129,670.553 804.349,565.566 805.473,562.82C807.97,556.717 824.35,556.484 1158.5,557.791L1447.5,558.922L1461.44,562.058C1478.4,565.87 1489.03,569.496 1503.5,576.4C1536.29,592.049 1559.68,615.216 1572.07,644.318C1576.74,655.303 1579.14,666.306 1580.06,681C1581.21,699.491 1581.17,1078.06 1580.01,1111C1578.93,1141.4 1578.24,1146.09 1573.07,1158.09C1567.31,1171.44 1559.06,1183.06 1546.06,1196.11C1521.96,1220.32 1494.74,1233.59 1456,1240.03C1434.55,1243.59 1396.45,1244.21 1231.5,1243.67C1059.14,1243.1 1049.49,1242.72 1045.37,1236.45C1042.49,1232.05 1041.75,1210.15 1042.42,1149.5C1042.78,1117.6 1043.41,1089.94 1043.82,1088.04C1044.33,1085.69 1045.54,1084 1047.6,1082.8C1054.79,1078.6 1059.56,1078.49 1208.56,1078.79C1351.38,1079.08 1368.73,1078.74 1374.87,1075.57C1376.44,1074.75 1378.58,1072.38 1379.62,1070.29C1381.36,1066.79 1381.5,1063.75 1381.5,1030C1381.5,996.63 1381.34,993.184 1379.67,989.82C1378.5,987.473 1376.69,985.704 1374.67,984.939C1372.35,984.059 1346.43,983.52 1277.5,982.919C1107.96,981.441 1108.87,981.456 1104.51,979.912C1097.2,977.322 1097.49,980.314 1097.57,908.5C1097.65,828.883 1098.12,824.291 1106.59,820.04C1111.29,817.681 1167.04,816.869 1274.77,817.589L1371.03,818.233L1375.4,813.863C1378.03,811.234 1380.21,807.901 1380.88,805.497C1382.24,800.592 1382.33,761.29 1381.03,741.084C1380.32,730.193 1379.71,726.28 1378.51,725.084C1377.12,723.69 1369.84,723.421 1317.71,722.843C1239.34,721.974 1014.34,721.841 1005.68,722.658L998.867,723.302L999.502,893.401C1000.22,1085.96 999.698,1118.89 995.687,1133.5C992.464,1145.24 991.066,1148.93 986.215,1158.53C966.433,1197.65 921.295,1229.07 870,1239.42C837.922,1245.89 801.401,1245.21 769.295,1237.53C758.765,1235.01 738.064,1227.08 726,1220.94C707.209,1211.39 688.708,1198.28 650,1167.12C633.577,1153.89 611.414,1137.1 609.332,1136.3C607.627,1135.64 596.131,1143.75 576.767,1159.25C520.3,1204.47 509.719,1212.02 488.835,1221.96C459.27,1236.04 429.882,1242.82 395.5,1243.5C385.05,1243.71 372.675,1243.44 368,1242.92ZM247.75,499.286C231.387,499.113 218,498.585 218,498.114C218,496.75 229.683,477.859 240.954,461C268.807,419.336 298.941,382.367 334.897,345.75L353.308,327L898.921,327L1444.53,327L1449.84,331.644C1461.36,341.722 1496.41,380.235 1516.23,404.597C1538.98,432.567 1582.67,496.661 1580.48,498.854C1579.84,499.49 305.773,499.903 247.75,499.286ZM420,271.12C420,269.962 443.622,252.832 462.5,240.301C553.761,179.723 656.949,138.753 764.211,120.509C814.751,111.912 843.309,109.579 898.5,109.539C924.199,109.521 946.71,110.01 956.5,110.801C1026.52,116.456 1086.59,128.493 1149.5,149.473C1228.07,175.676 1298,211.722 1365.69,260.914L1378.88,270.5L1363.19,271.115C1338.06,272.099 420,272.104 420,271.12Z" fill-rule="evenodd" fill="#000000"></path>
</g></svg></g></g></svg>